<svg width="26" height="26" viewBox="0 0 26 26" fill="none" xmlns="http://www.w3.org/2000/svg">
<path d="M24.8757 25.9992C24.6397 25.9992 24.4068 25.9347 24.2114 25.8134L13.0015 18.8098L1.79165 25.816C1.44895 26.0276 0.995028 26.0612 0.616256 25.8934C0.24049 25.7296 0 25.3967 0 25.0328V2.90314C0 1.30319 1.51809 0 3.38189 0H22.6181C24.4819 0 26 1.30319 26 2.90314V25.0315C26 25.3954 25.7625 25.7283 25.3837 25.8934C25.2244 25.9644 25.0486 25.9992 24.8727 25.9992H24.8757ZM13.0015 16.6447C13.2345 16.6447 13.4675 16.7066 13.6629 16.8305L23.7484 23.1309V2.90314C23.7484 2.37154 23.2419 1.93543 22.6211 1.93543H3.38189C2.76113 1.93543 2.2546 2.37154 2.2546 2.90314V23.1309L12.3402 16.8305C12.5356 16.7066 12.7685 16.6447 13.0015 16.6447V16.6447Z" fill="white"/>
</svg>
