<svg width="20" height="18" viewBox="0 0 20 18" fill="none" xmlns="http://www.w3.org/2000/svg">
<path d="M11.6403 1.68151L8.20276 1.67401H8.20111C4.57624 1.67401 1.73702 4.24426 1.73702 7.52551C1.73702 10.599 4.37735 12.93 7.92348 13.053V15.924C7.92348 16.005 7.95995 16.1385 8.02293 16.2263C8.14061 16.395 8.34116 16.4865 8.54669 16.4865C8.66105 16.4865 8.77624 16.458 8.87984 16.398C9.09862 16.272 14.2442 13.293 15.5826 12.2685C17.1588 11.061 18.1019 9.29101 18.1044 7.53451V7.52176C18.0994 4.24651 15.2619 1.68151 11.6403 1.68076V1.68151ZM14.7787 11.4105C13.839 12.1305 10.7494 13.9643 9.16658 14.8928V12.5025C9.16658 12.192 8.88895 11.94 8.54503 11.94H8.21685C5.1837 11.94 2.98094 10.083 2.98094 7.52551C2.98094 4.87501 5.27486 2.79901 8.20194 2.79901L11.6387 2.80651H11.6403C14.5674 2.80651 16.8613 4.88101 16.863 7.52851C16.8605 8.96101 16.0823 10.4115 14.7796 11.4105H14.7787Z" fill="#6E767D"/>
</svg>
