<svg width="21" height="18" viewBox="0 0 21 18" fill="none" xmlns="http://www.w3.org/2000/svg">
<path d="M10.5525 16.2285H10.5409C8.4003 16.1925 2.22379 11.142 2.22379 6.3585C2.22379 4.0605 4.31633 2.043 6.70141 2.043C8.5992 2.043 9.87544 3.228 10.5517 4.0905C11.2263 3.2295 12.5025 2.043 14.4011 2.043C16.7879 2.043 18.8796 4.0605 18.8796 6.35925C18.8796 11.1412 12.7022 16.1917 10.5616 16.227H10.5525V16.2285ZM6.70224 3.16875C4.97848 3.16875 3.46771 4.65975 3.46771 6.36C3.46771 10.665 9.29699 15.057 10.5533 15.1035C11.8114 15.057 17.639 10.6657 17.639 6.36C17.639 4.65975 16.1282 3.16875 14.4044 3.16875C12.3094 3.16875 11.1393 5.37075 11.1293 5.3925C10.9387 5.814 10.1713 5.814 9.97986 5.3925C9.96826 5.37 8.79892 3.16875 6.70307 3.16875H6.70224Z" fill="#6E767D"/>
</svg>
