<svg width="26" height="26" viewBox="0 0 26 26" fill="none" xmlns="http://www.w3.org/2000/svg">
<path d="M23.075 26H2.925C1.313 26 0 24.687 0 23.075V2.925C0 1.313 1.313 0 2.925 0H23.075C24.687 0 26 1.313 26 2.925V23.075C26 24.687 24.687 26 23.075 26ZM2.925 1.95C2.3868 1.95 1.95 2.3881 1.95 2.925V23.075C1.95 23.6119 2.3868 24.05 2.925 24.05H23.075C23.6132 24.05 24.05 23.6119 24.05 23.075V2.925C24.05 2.3881 23.6132 1.95 23.075 1.95H2.925Z" fill="white"/>
<path d="M19.5 8.63202H6.49999C5.96179 8.63202 5.52499 8.19392 5.52499 7.65702C5.52499 7.12012 5.96179 6.68202 6.49999 6.68202H19.5C20.0382 6.68202 20.475 7.11752 20.475 7.65702C20.475 8.19652 20.0382 8.63202 19.5 8.63202ZM19.5 13.975H6.49999C5.96179 13.975 5.52499 13.5382 5.52499 13C5.52499 12.4618 5.96179 12.025 6.49999 12.025H19.5C20.0382 12.025 20.475 12.4618 20.475 13C20.475 13.5382 20.0382 13.975 19.5 13.975ZM13 19.318H6.49999C5.96179 19.318 5.52499 18.8825 5.52499 18.343C5.52499 17.8035 5.96179 17.368 6.49999 17.368H13C13.5382 17.368 13.975 17.8061 13.975 18.343C13.975 18.8799 13.5382 19.318 13 19.318Z" fill="white"/>
</svg>
