<svg width="29" height="28" viewBox="0 0 29 28" fill="none" xmlns="http://www.w3.org/2000/svg">
<path d="M17.6023 5.62512C14.3622 2.51881 9.10756 2.51881 5.86744 5.62512C2.62732 8.73143 2.62732 13.7691 5.86744 16.8754C8.73776 19.6272 13.1894 19.9378 16.419 17.814L20.4585 22.146C21.1453 22.8854 22.3392 22.9158 23.0683 22.2169L23.1739 22.1156C23.9029 21.4167 23.8712 20.2721 23.1 19.6136L18.5814 15.7409C20.8002 12.6413 20.4726 8.37691 17.6023 5.62512ZM15.5878 14.9441C13.4606 16.9834 10.0092 16.9834 7.88195 14.9441C5.75474 12.9047 5.75474 9.5958 7.88195 7.55643C10.0092 5.51707 13.4606 5.51707 15.5878 7.55644C17.7185 9.59917 17.715 12.9047 15.5878 14.9441Z" fill="#B7B7B7"/>
</svg>
