<svg width="26" height="26" viewBox="0 0 26 26" fill="none" xmlns="http://www.w3.org/2000/svg">
<path d="M26 3.07847C25.0439 3.59976 24.0167 3.95199 22.9369 4.1112C24.0385 3.29966 24.8836 2.01192 25.282 0.479029C24.2515 1.23139 23.1098 1.77804 21.8949 2.0711C20.9216 0.797442 19.5361 0 18.0017 0C15.0566 0 12.6679 2.93898 12.6679 6.56551C12.6679 7.07836 12.716 7.57711 12.8053 8.05896C8.37047 7.78422 4.44173 5.1707 1.81036 1.20039C1.35233 2.17254 1.08896 3.29966 1.08896 4.50005C1.08896 6.77685 2.03136 8.78736 3.46155 9.9638C2.58672 9.92858 1.76456 9.63412 1.04545 9.14241V9.22694C1.04545 12.4068 2.88329 15.0598 5.32458 15.6628C4.87572 15.8122 4.40509 15.8911 3.91958 15.8911C3.57606 15.8911 3.24055 15.8516 2.91535 15.7756C3.59438 18.382 5.5639 20.2812 7.89871 20.332C6.07232 22.0931 3.77187 23.1427 1.27332 23.1427C0.842773 23.1427 0.417951 23.1117 0 23.0512C2.36114 24.9151 5.16427 26 8.17581 26C17.9891 26 23.3537 15.9996 23.3537 7.32632C23.3537 7.04454 23.348 6.75994 23.3377 6.47816C24.3797 5.5511 25.2843 4.3972 25.9977 3.08269L26 3.07847Z" fill="white"/>
</svg>
