<svg width="24" height="25" viewBox="0 0 24 25" fill="none" xmlns="http://www.w3.org/2000/svg">
<path d="M19 11V9.29999H14.6V15.7H16.3V13.7H18.3V12H16.3V11H19ZM11.7 9.29999H13.4V15.7H11.7V9.29999ZM8.1 10.9C8.5 10.9 9 11.1 9.3 11.4L10.5 10.4C9.9 9.69999 9 9.29999 8.1 9.29999C6.3 9.29999 4.9 10.7 4.9 12.5C4.9 14.3 6.3 15.7 8.1 15.7C9.1 15.7 9.9 15.3 10.5 14.6V12.1H7.7V13.3H8.9V13.9C8.7 14 8.4 14.1 8.1 14.1C7.2 14.1 6.5 13.4 6.5 12.5C6.5 11.7 7.2 10.9 8.1 10.9Z" fill="#1DA1F2"/>
<path d="M20.5 2.51999H3.5C2.26 2.51999 1.25 3.52699 1.25 4.76699V20.274C1.25 21.512 2.26 22.52 3.5 22.52H20.5C21.74 22.52 22.75 21.512 22.75 20.274V4.76699C22.75 3.52699 21.74 2.51999 20.5 2.51999ZM21.25 20.274C21.25 20.684 20.914 21.02 20.5 21.02H3.5C3.086 21.02 2.75 20.684 2.75 20.274V4.76699C2.75 4.35499 3.086 4.01999 3.5 4.01999H20.5C20.914 4.01999 21.25 4.35499 21.25 4.76699V20.274Z" fill="#1DA1F2"/>
</svg>
