<svg width="26" height="26" viewBox="0 0 26 26" fill="none" xmlns="http://www.w3.org/2000/svg">
<path d="M22.425 0H3.575C1.6029 0 0 1.78244 0 3.97511V22.0234C0 24.2161 1.6029 26 3.575 26H22.425C24.3971 26 26 24.2161 26 22.0234V3.97511C26 1.78244 24.3971 0 22.425 0ZM3.575 2.16667H22.425C23.322 2.16667 24.05 2.97556 24.05 3.97222V5.00356L13.585 12.7559C13.2301 13.0159 12.7712 13.0188 12.415 12.753L1.95 5.00356V3.97222C1.95 2.97556 2.678 2.16667 3.575 2.16667V2.16667ZM22.425 23.8304H3.575C2.678 23.8304 1.95 23.0216 1.95 22.0249V7.54289L11.362 14.5196C11.8599 14.8893 12.4306 15.0742 13 15.0742C13.572 15.0742 14.1401 14.8893 14.638 14.521L24.05 7.54433V22.0206C24.05 23.0172 23.322 23.8261 22.425 23.8261V23.8304Z" fill="white"/>
</svg>
