<svg width="26" height="26" viewBox="0 0 26 26" fill="none" xmlns="http://www.w3.org/2000/svg">
<path d="M25.61 18.8513C25.584 18.8306 22.8277 16.7248 22.8758 11.0323C22.9018 7.74904 21.8201 4.83148 19.8244 2.81772C18.0367 1.01142 15.6158 0.0129669 13.009 0H12.9921C10.3866 0.0129669 7.96571 1.01142 6.17671 2.81901C4.18228 4.83278 3.09795 7.74904 3.12656 11.0323C3.17466 16.6469 0.500256 18.7696 0.393644 18.8513C0.0556051 19.1016 -0.0822108 19.5386 0.0491042 19.938C0.181719 20.3373 0.556163 20.6058 0.974811 20.6058H7.37154C7.50416 23.6011 9.96794 26 13.0012 26C16.0344 26 18.4956 23.6011 18.6269 20.6058H25.0263C25.4449 20.6058 25.8194 20.3386 25.9494 19.9393C26.0833 19.5412 25.9455 19.1029 25.6074 18.8526L25.61 18.8513ZM13.0025 24.0511C11.0458 24.0511 9.45308 22.5249 9.32567 20.6045H16.6793C16.5493 22.5236 14.9592 24.0537 13.0025 24.0537V24.0511ZM3.09535 18.6594C4.05746 17.1916 5.10798 14.733 5.07678 11.0141C5.05338 8.21326 5.91408 5.85068 7.56397 4.18443C8.98503 2.74899 10.9184 1.95412 13.0025 1.94504C15.0866 1.95541 17.0161 2.74899 18.4371 4.18573C20.0883 5.85198 20.9503 8.21326 20.9269 11.0154C20.8957 14.7343 21.9475 17.1942 22.9096 18.6607H3.09535V18.6594Z" fill="white"/>
</svg>
