<svg width="26" height="26" viewBox="0 0 26 26" fill="none" xmlns="http://www.w3.org/2000/svg">
<path d="M13.0002 12.9872C15.1095 12.9872 17.4711 12.7955 18.978 11.3817C20.2452 10.1929 20.6561 8.35477 20.2327 5.76755C19.6411 2.15644 16.9371 0 13.0002 0C9.06321 0 6.35918 2.15644 5.76763 5.77011C5.3442 8.35477 5.75517 10.1929 7.02235 11.3817C8.52925 12.7968 10.8908 12.9872 13.0002 12.9872V12.9872ZM8.08092 6.02321C8.33311 4.48928 9.30606 1.9174 13.0002 1.9174C16.6943 1.9174 17.6672 4.49056 17.9194 6.02321C18.2417 8.00452 18.0081 9.38122 17.2189 10.1201C16.5106 10.7848 15.2481 11.0698 13.0002 11.0698C10.7523 11.0698 9.48975 10.7848 8.78144 10.1201C7.99218 9.38122 7.75868 8.00324 8.08092 6.02321ZM25.8898 22.472C24.5246 17.9648 19.2239 14.8151 13.0002 14.8151C6.77638 14.8151 1.47574 17.9648 0.110495 22.472C-0.157261 23.3565 0.0669067 24.2616 0.725401 24.9518C1.36054 25.6165 2.34439 26 3.4232 26H22.5771C23.6559 26 24.6398 25.6165 25.2749 24.9518C25.935 24.2616 26.1576 23.3578 25.8883 22.472H25.8898ZM23.4364 23.7707C23.2403 23.9752 22.9445 24.0852 22.5771 24.0852H3.4232C3.05737 24.0852 2.76004 23.9765 2.56389 23.7707C2.35062 23.5483 2.28368 23.2441 2.37708 22.9347C3.48236 19.2852 7.85208 16.7351 13.0002 16.7351C18.1482 16.7351 22.518 19.284 23.6232 22.9347C23.7166 23.2441 23.6497 23.5483 23.4364 23.7707V23.7707Z" fill="white"/>
</svg>
