<svg width="42" height="40" viewBox="0 0 42 40" fill="none" xmlns="http://www.w3.org/2000/svg">
<ellipse cx="20.8615" cy="20" rx="20.8615" ry="20" fill="#373737"/>
<path d="M24.6023 12.6251C21.3622 9.51881 16.1076 9.51881 12.8674 12.6251C9.62732 15.7314 9.62732 20.7691 12.8674 23.8754C15.7378 26.6272 20.1894 26.9378 23.419 24.814L27.4585 29.146C28.1453 29.8854 29.3392 29.9158 30.0683 29.2169L30.1739 29.1156C30.9029 28.4167 30.8712 27.2721 30.1 26.6136L25.5814 22.7409C27.8002 19.6413 27.4726 15.3769 24.6023 12.6251ZM22.5878 21.9441C20.4606 23.9834 17.0092 23.9834 14.8819 21.9441C12.7547 19.9047 12.7547 16.5958 14.8819 14.5564C17.0092 12.5171 20.4606 12.5171 22.5878 14.5564C24.7185 16.5992 24.715 19.9047 22.5878 21.9441Z" fill="#B7B7B7"/>
</svg>
