<svg width="21" height="18" viewBox="0 0 21 18" fill="none" xmlns="http://www.w3.org/2000/svg">
<g clip-path="url(#clip0_119_327)">
<path d="M20.0801 11.7525C19.8381 11.5327 19.4445 11.5327 19.2017 11.7525L17.3619 13.4175V5.7375C17.3619 4.1865 15.9671 2.925 14.2541 2.925H9.40608C9.06299 2.925 8.78454 3.177 8.78454 3.4875C8.78454 3.798 9.06299 4.05 9.40608 4.05H14.2541C15.2818 4.05 16.1188 4.8075 16.1188 5.7375V13.4175L14.279 11.7525C14.0362 11.5327 13.6425 11.5327 13.4006 11.7525C13.1586 11.9722 13.1569 12.3285 13.4006 12.5475L16.3011 15.1725C16.4213 15.2827 16.5804 15.3375 16.7403 15.3375C16.9003 15.3375 17.0577 15.2835 17.1796 15.1725L20.0801 12.5475C20.3238 12.3285 20.3238 11.9722 20.0801 11.7525ZM11.2459 14.2125H6.3978C5.37017 14.2125 4.53316 13.455 4.53316 12.525V4.845L6.37293 6.51C6.49559 6.62025 6.6547 6.675 6.81382 6.675C6.97293 6.675 7.13205 6.62025 7.25304 6.51C7.49586 6.29025 7.49586 5.934 7.25304 5.715L4.35249 3.09C4.10968 2.8695 3.71603 2.8695 3.47404 3.09L0.573489 5.715C0.329843 5.934 0.329843 6.29025 0.573489 6.51C0.817136 6.72975 1.20912 6.72975 1.45194 6.51L3.29172 4.845V12.525C3.29172 14.076 4.68647 15.3375 6.39945 15.3375H11.2475C11.5906 15.3375 11.8691 15.0855 11.8691 14.775C11.8691 14.4645 11.5898 14.2125 11.2475 14.2125H11.2459Z" fill="#6E767D"/>
</g>
<defs>
<clipPath id="clip0_119_327">
<rect width="19.8895" height="18" fill="white" transform="translate(0.381226)"/>
</clipPath>
</defs>
</svg>
