<svg width="21" height="18" viewBox="0 0 21 18" fill="none" xmlns="http://www.w3.org/2000/svg">
<path d="M15.4945 5.6025L11.3509 1.8525C11.108 1.63275 10.7144 1.63275 10.4724 1.8525L6.32876 5.6025C6.08511 5.82225 6.08511 6.17849 6.32876 6.3975C6.57241 6.6165 6.9644 6.618 7.20722 6.3975L10.2901 3.6075V11.25C10.2901 11.5605 10.5685 11.8125 10.9116 11.8125C11.2547 11.8125 11.5332 11.5605 11.5332 11.25V3.6075L14.6161 6.3975C14.7371 6.50775 14.8962 6.5625 15.0553 6.5625C15.2144 6.5625 15.3735 6.5085 15.4945 6.3975C15.7373 6.17775 15.7373 5.82225 15.4945 5.6025Z" fill="#6E767D"/>
<path d="M17.2995 16.458H4.52378C3.47626 16.458 2.62433 15.687 2.62433 14.739V10.5C2.62433 10.1895 2.90278 9.9375 3.24588 9.9375C3.58897 9.9375 3.86742 10.1895 3.86742 10.5V14.739C3.86742 15.0668 4.16162 15.333 4.52378 15.333H17.2995C17.6616 15.333 17.9558 15.0668 17.9558 14.739V10.5C17.9558 10.1895 18.2343 9.9375 18.5774 9.9375C18.9205 9.9375 19.1989 10.1895 19.1989 10.5V14.739C19.1989 15.687 18.347 16.458 17.2995 16.458Z" fill="#6E767D"/>
</svg>
